<svg width="209" height="187" viewBox="0 0 209 187" fill="none" xmlns="http://www.w3.org/2000/svg">
<path d="M110.559 182.92C107.099 184.142 101.401 184.142 97.9415 182.92C68.434 172.834 2.5 130.76 2.5 59.4479C2.5 27.9686 27.8358 2.5 59.073 2.5C77.5915 2.5 93.9733 11.465 104.25 25.3199C114.527 11.465 131.01 2.5 149.427 2.5C180.664 2.5 206 27.9686 206 59.4479C206 130.76 140.066 172.834 110.559 182.92Z" fill="#44BDB6" stroke="#44BDB6" stroke-width="5" stroke-linecap="round" stroke-linejoin="round"/>
<path d="M70.0835 63.1594C69.6342 63.1162 68.8903 63.8362 68.4561 64.0605C68.1182 64.2349 67.3685 64.6146 66.9995 64.6102C66.764 64.6076 66.2583 64.3591 66.0139 64.2826C65.8859 64.3258 65.7807 64.3631 65.6757 64.4507C65.4841 64.6106 65.3538 64.8131 65.3395 65.067C65.3154 65.4976 65.6804 65.8128 65.9572 66.0899C66.4078 66.407 66.938 66.5944 67.4886 66.6283C68.2679 66.676 69.1273 66.4545 69.7118 65.9223C70.2134 65.4655 70.4498 64.8602 70.4625 64.1891C70.4702 63.7777 70.3716 63.4544 70.0835 63.1594Z" fill="white"/>
<path d="M132.098 83.9092L132.007 83.8992C131.815 83.9073 131.741 83.9373 131.6 84.0528C131.598 84.1782 131.611 84.2781 131.685 84.3839C132.152 85.0431 133.039 85.4965 133.761 85.8049C136.767 87.0895 140.283 87.3653 143.501 87.7721C143.7 87.7223 143.854 87.6862 144.021 87.5578L143.987 87.3915C143.598 87.0501 143.097 86.8995 142.612 86.7534C141.358 86.3763 140.047 86.2593 138.761 86.0289C137.792 85.8553 136.814 85.6462 135.868 85.3736C134.567 84.999 133.349 84.411 132.098 83.9092Z" fill="white"/>
<path d="M69.1569 37.5272C69.046 37.5106 68.9272 37.4923 68.8152 37.5034C68.5844 37.5261 68.3427 37.6985 68.2148 37.8862C67.9086 38.3358 67.9718 38.9172 67.9071 39.4299C67.8274 40.0599 67.7156 40.7126 67.5806 41.3325C67.2662 42.7753 66.7864 44.1587 66.2856 45.5449C66.0497 46.1981 65.3824 47.5099 65.544 48.1534C65.6854 48.3309 65.8065 48.3638 66.0139 48.426C66.1694 48.4664 66.2767 48.4805 66.4347 48.4371C66.8865 48.3129 67.1842 47.9789 67.4154 47.5916C67.7787 46.983 67.9948 46.3296 68.2405 45.6688C68.75 44.2989 69.1308 42.8937 69.4091 41.4594C69.5673 40.645 69.76 39.538 69.5468 38.7231C69.4289 38.2725 69.5166 37.8654 69.1569 37.5272Z" fill="white"/>
<path d="M118.716 91.2328L118.45 91.174C118.254 91.2465 118.217 91.2348 118.114 91.4122C118.169 91.6441 118.252 91.7955 118.4 91.9831C118.888 92.6029 119.533 93.0989 120.153 93.5783C122.455 95.3577 125.134 96.5882 127.869 97.5364C128.956 97.9127 130.011 98.2839 131.163 98.3981L131.337 98.385C131.542 98.2134 131.3 97.9442 131.385 97.7114C131.421 97.612 131.625 97.5525 131.691 97.3715C131.403 96.8346 129.414 96.4085 128.778 96.1868C126.479 95.3866 124.141 94.4962 122.018 93.2965C120.885 92.6565 119.885 91.817 118.716 91.2328Z" fill="white"/>
<path d="M51.6025 39.2504L51.4298 39.2259C51.2959 39.2746 51.1986 39.3176 51.0895 39.4117C50.7997 39.661 50.662 39.8777 50.6219 40.2555C50.7472 40.7253 51.058 41.1178 51.3091 41.5274C52.2312 43.0302 53.0099 44.6555 53.7532 46.2546C54.226 47.2719 54.6665 48.3375 55.2354 49.3053C55.4635 49.6932 55.7671 49.9656 56.101 50.2574L56.3684 50.3926C56.5684 50.4727 56.6914 50.5393 56.8916 50.4586C56.9621 50.1236 56.8669 49.8095 56.794 49.4817C56.632 48.7553 56.391 48.0482 56.1406 47.3482C55.5261 45.6299 54.806 43.9277 53.9775 42.3018C53.4302 41.2275 52.7382 39.7889 51.6025 39.2504Z" fill="white"/>
<path d="M39.2145 47.8439L38.9344 47.8274C38.7632 47.9276 38.6134 48.0716 38.5399 48.2611C38.4566 48.476 38.5169 48.6 38.6014 48.7996C39.1495 49.2766 39.8849 49.5678 40.5148 49.9341C41.1744 50.3178 41.7661 50.807 42.3285 51.3209C43.4459 52.3423 44.3045 53.6368 45.1738 54.8682C45.7083 55.6257 46.2061 56.4847 46.9628 57.045C47.3827 57.3557 47.8722 57.5152 48.3692 57.6494C48.5098 57.657 48.6782 57.6519 48.811 57.5989C49.0293 57.5118 49.1204 57.4509 49.1979 57.236C49.0727 56.8045 48.8677 56.4467 48.6266 56.0715C47.9998 55.0959 47.2218 54.1999 46.4836 53.3069C44.4897 50.8952 42.4024 48.5433 39.2145 47.8439Z" fill="white"/>
<path d="M144.08 88.8633C143.76 88.7651 143.51 88.8467 143.201 88.9572C142.604 89.1711 142.062 89.5895 141.477 89.8538C140.037 90.504 138.391 90.9183 136.839 91.2001C133.496 91.8072 129.97 91.5491 126.688 90.7202C126.156 90.5858 125.627 90.4432 125.106 90.2713C124.399 90.0381 123.731 89.7687 122.975 89.8264L122.935 89.9403C123.088 90.283 123.371 90.4253 123.674 90.6225C125.067 91.4213 126.531 92.0034 128.097 92.3656C131.753 93.2105 135.558 92.9879 139.136 91.9101C140.468 91.5091 141.743 91.0505 142.924 90.302C143.397 90.0027 144.054 89.574 144.184 89.0069L144.08 88.8633Z" fill="white"/>
<path d="M159.336 74.5753C159.12 74.6062 158.833 74.8025 158.639 74.9109C158.138 75.1889 157.649 75.4902 157.126 75.7241C156.474 76.0152 155.741 76.2211 155.048 76.3923C154.613 78.0729 153.86 79.2504 152.515 80.3694C149.899 82.546 145.55 83.1387 142.249 82.8499C140.222 82.6725 138.25 82.2173 136.23 82.0163C136.619 82.4703 136.981 82.7849 137.476 83.1129L138.736 83.6936C142.881 85.2946 148.066 85.656 152.174 83.808C154.556 82.7364 156.588 81.0322 158.014 78.8432C158.397 78.2561 158.753 77.7019 159.002 77.0447C159.261 76.3595 159.658 75.2879 159.336 74.5753Z" fill="white"/>
<path d="M125.667 118.085C125.538 118.045 125.478 118.05 125.346 118.06C125.122 118.186 125.033 118.267 124.89 118.48C124.864 118.701 124.858 118.888 124.949 119.095C125.272 119.828 125.853 120.484 126.311 121.136C127.138 122.314 127.959 123.504 128.75 124.707C130.265 127.011 131.746 129.339 133.242 131.655C134.976 134.339 136.624 137.055 138.684 139.508C139.671 140.684 140.856 142.01 142.318 142.577C143.008 142.845 143.551 142.781 144.219 142.498C144.675 142.187 145 141.828 145.359 141.412L145.099 141.434C144.905 141.449 144.69 141.477 144.499 141.432C144.199 141.362 143.874 141.126 143.615 140.962C142.872 140.492 142.262 139.899 141.646 139.277C139.991 137.609 138.635 135.649 137.299 133.726C136.322 132.319 135.329 130.917 134.324 129.53C132.497 127.013 130.619 124.529 128.787 122.014C128.178 121.178 127.609 120.322 126.986 119.495C126.585 118.962 126.241 118.449 125.667 118.085Z" fill="white"/>
<path d="M169.217 62.7354C168.344 63.5798 167.261 64.4096 166.183 64.9667C165.716 65.208 165.228 65.3683 164.754 65.5903C164.719 65.6069 164.496 65.7019 164.484 65.718C164.425 65.8015 164.401 66.3293 164.374 66.4664C164.164 67.5553 163.539 68.7299 162.668 69.445C161.118 70.7154 159.361 71.5752 157.492 72.2737C153.243 73.8617 149.009 74.2916 144.508 74.2876C143.249 74.2867 141.93 74.346 140.681 74.1916L140.575 74.1781C140.87 74.4837 141.14 74.7174 141.502 74.9414C143.104 75.7765 145.379 75.7971 147.161 75.8604C150.428 75.9765 153.671 75.3524 156.831 74.6196C157.971 74.3551 159.072 74.1357 160.16 73.6832C162.122 72.8679 163.933 71.7183 165.477 70.2578C167.599 68.2503 169.141 65.6997 169.217 62.7354Z" fill="white"/>
<path d="M170.194 56.0712C169.504 56.7517 168.835 57.4362 168.046 58.0039C166.749 58.9361 165.267 59.7039 163.857 60.4529C161.185 61.8722 158.394 63.278 155.551 64.3192C153.558 65.0488 151.546 65.5649 149.516 66.1599C148.977 66.3179 148.351 66.5537 148.072 67.0725C148.063 67.3988 148.024 67.4248 148.248 67.6827C148.531 67.8658 148.891 67.8648 149.217 67.8645C150.393 67.8632 151.581 67.6852 152.745 67.525C155.17 67.1911 157.509 66.6521 159.858 65.9759C162.674 65.1649 166.046 64.0726 168.138 61.9226C169.73 60.2874 170.205 58.2889 170.194 56.0712Z" fill="white"/>
<path d="M71.1834 57.1998C68.0804 57.1457 65.0922 57.6588 62.3859 59.2475C60.7643 60.1995 59.3896 61.4216 58.2807 62.9373C57.847 63.5302 57.399 64.2277 57.2291 64.9496C57.1364 65.3436 57.0749 65.9291 57.2868 66.2713C57.6255 66.2132 57.8779 65.5924 58.0429 65.3085C58.7909 64.0207 59.7848 62.9958 60.8972 62.0149C64.3434 58.9764 69.0903 58.3094 73.5228 58.6169C78.985 58.996 83.5229 61.324 87.4659 65.0508C88.558 66.0829 89.5468 67.2161 90.5386 68.3431C92.4518 70.5966 94.4284 72.7761 96.4701 74.9135C97.2863 75.7682 98.0922 76.6135 98.9559 77.4223C99.5491 77.9777 100.242 78.6194 101.013 78.9118C101.203 78.984 101.244 79.0139 101.426 78.9327C101.52 78.7956 101.575 78.7315 101.589 78.5596C101.61 78.2891 101.085 77.887 100.886 77.7003C96.635 73.7002 93.1889 68.9714 89.1278 64.7953C85.398 60.9599 80.645 58.1409 75.2889 57.3983C73.9346 57.2107 72.5485 57.2199 71.1834 57.1998Z" fill="white"/>
<path d="M79.7877 91.1609L79.6965 91.1703C79.5871 91.196 79.4291 91.2786 79.3693 91.37C79.2489 91.5545 79.2507 91.8057 79.2883 92.0175C79.4727 93.0589 80.2591 94.059 80.7891 94.9563C82.0163 97.0331 83.4038 98.9322 84.8734 100.841C88.1629 105.114 91.9306 108.973 96.2861 112.164C102.592 116.784 109.864 119.778 117.334 121.928C119.666 122.6 122.46 123.47 124.91 123.094L125.274 122.938C125.465 122.815 125.512 122.633 125.574 122.429C125.292 122.172 123.994 122.187 123.526 122.095C121.164 121.634 118.832 121.057 116.518 120.398C109.663 118.444 103.071 115.517 97.3079 111.288C93.8178 108.727 90.4747 105.462 87.7673 102.078C86.3036 100.249 84.894 98.3672 83.5941 96.4174C82.5879 94.9081 81.6831 93.2897 80.5776 91.853C80.3419 91.5464 80.1532 91.3034 79.7877 91.1609Z" fill="white"/>
<path d="M57.0355 67.0224C54.9434 66.9747 52.8193 67.5696 51.2605 69.0244C50.6674 69.5779 50.2118 70.1966 49.569 70.7158C51.7191 72.6049 54.3217 73.5754 57.1485 73.8135C57.5265 73.8452 58.197 73.6608 58.5055 73.8062C59.4366 74.2447 60.2958 75.0873 61.1684 75.6653C62.9633 76.8541 64.8036 77.7999 66.7849 78.6339L70.3525 79.8167L70.9792 79.1755L59.5884 73.2676C60.1389 73.0163 60.7912 72.843 61.3033 72.5286C61.6949 72.2882 61.9986 71.8233 62.0846 71.3737C62.2198 70.6662 61.7164 69.8311 61.307 69.2825C60.3577 68.0102 58.5664 67.2341 57.0355 67.0224Z" fill="white"/>
<path d="M133.114 124.26L132.956 124.218C132.659 124.304 132.413 124.58 132.186 124.782C133.386 126.176 135.17 127.283 136.637 128.382C139.931 130.849 143.296 133.223 146.571 135.717C150.33 138.578 154.041 141.51 157.618 144.596C158.604 145.447 159.512 146.387 160.503 147.243C159.774 147.639 158.741 148.297 157.884 148.282C157.488 148.275 157.054 148.056 156.71 147.874C154.653 146.788 153.268 144.599 151.874 142.81C151.234 141.989 150.561 141.195 149.916 140.378C148.992 139.207 147.813 137.404 146.308 136.988C145.802 136.848 145.548 136.891 145.099 137.172C144.635 137.462 144.356 137.912 144.238 138.438C144.039 139.33 144.415 139.948 144.884 140.664C145.191 140.295 145.505 140.052 145.897 139.784C146.687 140.353 147.359 141.128 148.026 141.832C149.198 143.101 150.417 144.326 151.591 145.593C152.321 146.379 153.036 147.178 153.765 147.966C154.027 148.249 154.355 148.69 154.681 148.892C155.832 149.605 157.203 149.622 158.483 149.295C159.771 148.966 161.237 148.114 162.581 148.243C163.369 148.319 164.124 148.548 164.905 148.63C166.597 148.807 167.934 148.366 169.254 147.326C167.927 147.168 166.562 147.731 165.213 147.445C163.719 147.129 162.385 146.419 161.117 145.585C158.62 143.943 156.433 141.844 154.099 139.989C152.469 138.694 150.85 137.379 149.193 136.118C145.97 133.665 142.66 131.331 139.397 128.933C138.244 128.086 137.069 127.251 135.935 126.38C135.011 125.67 134.105 124.875 133.114 124.26Z" fill="white"/>
<path d="M168.821 54.4718C168.752 54.4539 168.736 54.4463 168.655 54.4444C167.978 54.4292 167.087 54.7463 166.466 54.9853C164.937 55.5735 163.494 56.3662 162.018 57.0703C159.626 58.2123 157.216 59.3044 154.766 60.3175C151.96 61.4775 149.1 62.5554 146.235 63.561C139.766 65.8313 133.273 68.0341 126.8 70.2948C122.605 71.7596 118.364 73.1518 114.233 74.7908C112.245 75.5796 110.217 76.3525 108.346 77.395C107.897 77.6448 107.311 77.91 106.957 78.2846L107.1 78.3662C108.56 78.5325 110.256 78.3366 111.673 77.9521C114.343 77.2274 116.949 76.1336 119.542 75.1726C123.765 73.6079 127.989 72.0482 132.206 70.47C136.246 68.9581 140.295 67.4631 144.354 66.0038C147.801 64.7647 151.263 63.5798 154.646 62.171C159.015 60.3518 163.194 58.2033 167.25 55.7684C167.684 55.5077 168.795 55.0298 168.979 54.5817L168.821 54.4718Z" fill="white"/>
<path d="M107.935 79.5296C107.825 79.5039 107.827 79.4862 107.73 79.5198C107.347 79.6514 107.07 80.0654 106.897 80.4098C106.558 81.0833 106.51 81.763 106.527 82.5038C106.575 84.5027 107.142 86.6262 107.748 88.5241C109.051 92.602 111.067 96.4051 113.564 99.8769C114.668 101.411 115.913 102.877 117.115 104.336C119.147 106.804 121.216 109.229 123.376 111.587C124.481 112.793 125.635 113.956 126.757 115.146C128.043 116.509 129.05 118.103 130.419 119.391C131.378 120.294 132.506 121.051 133.563 121.834C134.688 122.667 135.794 123.536 136.894 124.402C138.772 125.879 140.617 127.403 142.525 128.84C147.104 132.29 151.814 135.576 156.496 138.884C157.672 139.715 158.859 140.533 160.017 141.389C161.267 142.312 162.504 143.278 163.808 144.124C164.784 144.758 165.859 145.312 166.893 145.846C167.397 146.106 168.454 146.643 169.012 146.424C169.156 146.367 169.131 146.357 169.191 146.231C169.04 146.133 168.913 146.025 168.779 145.907L168.838 145.862L169.619 146.005C169.861 146.042 170.019 146.052 170.22 145.907L170.205 145.728C169.527 144.666 167.891 144.015 166.827 143.384C165.652 142.686 164.415 141.944 163.308 141.149C162.423 140.533 161.478 139.977 160.578 139.383C157.694 137.479 154.807 135.54 151.994 133.534C151.005 132.83 150.044 132.073 149.065 131.354C145.391 128.659 141.726 125.945 138.251 122.991C137.079 121.995 135.984 120.894 134.851 119.853C130.75 116.08 126.734 112.146 122.998 108.009C121.563 106.421 120.164 104.732 118.87 103.028C118.548 102.603 117.831 101.823 117.858 101.285C118.561 100.926 120.139 101.298 120.922 101.356C121.593 101.406 122.278 101.408 122.951 101.395C125.728 101.343 128.706 100.955 131.198 99.6797C130.917 99.497 130.421 99.3351 130.083 99.3406C128.821 99.3605 127.554 99.7655 126.317 99.9851C124.803 100.254 123.148 100.337 121.61 100.252C118.618 100.086 115.92 99.3422 113.867 97.0289C113.05 96.1077 112.394 95.0067 111.779 93.9465C109.266 89.6155 107.666 84.5711 107.935 79.5296Z" fill="white"/>
</svg>
